<svg version="1.1" id="logo-svg" xmlns="http://www.w3.org/2000/svg" xmlns:xlink="http://www.w3.org/1999/xlink" x="0px" y="0px" viewBox="0 0 376.4 93.1" style="enable-background:new 0 0 376.4 93.1;" xml:space="preserve">
          <style type="text/css">
            #logo-svg .st0{fill:#3F3B38;}
          </style>
          <g>
            <g>
              <path class="st0" d="M123.1,38.8V0.3h8.9v38.5H123.1z"></path>
              <path class="st0" d="M172.5,19.2c0,2.8-0.5,5.5-1.4,7.9s-2.3,4.5-4.2,6.3s-4.3,3.2-7.2,4.2s-6.4,1.5-10.3,1.5c-1.1,0-2.1,0-3.1,0
                c-0.9,0-1.8-0.1-2.7-0.1c-0.9-0.1-1.8-0.1-2.8-0.2c-0.9-0.1-2-0.2-3.2-0.3V0.7c2.2-0.2,4.2-0.4,5.9-0.5s3.5-0.1,5.5-0.1
                c4,0,7.5,0.5,10.4,1.5s5.4,2.3,7.3,4c1.9,1.7,3.4,3.7,4.3,6.1C172.1,14,172.5,16.5,172.5,19.2z M163,19.2c0-3.5-1.1-6.2-3.2-8.2
                c-2.2-2-5.3-3-9.5-3c-0.8,0-1.4,0-1.9,0.1c-0.5,0-1.1,0.1-1.8,0.2V31c0.4,0,0.8,0.1,1.1,0.1s0.6,0.1,0.9,0.1c0.3,0,0.6,0,1,0
                c0.3,0,0.8,0,1.3,0c2.1,0,3.9-0.3,5.4-0.8c1.5-0.6,2.8-1.4,3.8-2.4c1-1.1,1.7-2.3,2.2-3.8C162.8,22.6,163,21,163,19.2z"></path>
              <path class="st0" d="M177.7,38.8V0.3h24.4v8.2h-15.4v6.9h14.1v7.8h-14.1v7.5h15.4v8.1H177.7z"></path>
              <path class="st0" d="M234.6,38.8l-2.9-7h-13.3l-2.9,7h-9.1L224.5,0h1.2l18.1,38.8H234.6z M225.1,15.7l-3.8,9.2h7.6L225.1,15.7z"></path>
            </g>
            <g>
              <path class="st0" d="M131.8,61.8v8.5H145v7.8h-13.2v14h-8.9V53.6h24.4v8.2H131.8z"></path>
              <path class="st0" d="M190.1,72.9c0,2.8-0.5,5.5-1.4,7.9c-1,2.4-2.3,4.5-4.1,6.3c-1.8,1.8-3.8,3.2-6.3,4.2c-2.4,1-5.1,1.5-8.1,1.5
                s-5.7-0.5-8.1-1.5c-2.4-1-4.5-2.4-6.2-4.2s-3-3.9-3.9-6.3c-0.9-2.4-1.4-5-1.4-7.9c0-2.8,0.5-5.5,1.4-7.9c1-2.4,2.3-4.5,4-6.3
                s3.8-3.2,6.3-4.2s5.2-1.5,8.1-1.5c3,0,5.7,0.5,8.1,1.5c2.4,1,4.4,2.4,6.1,4.2c1.7,1.8,3,3.9,3.9,6.3
                C189.7,67.4,190.1,70.1,190.1,72.9z M180.6,72.9c0-1.8-0.2-3.4-0.7-4.8c-0.5-1.5-1.2-2.7-2.1-3.8c-0.9-1.1-2-1.9-3.2-2.5
                s-2.6-0.9-4.2-0.9c-1.5,0-2.9,0.3-4.1,0.9c-1.3,0.6-2.3,1.4-3.2,2.5c-0.9,1.1-1.6,2.3-2.1,3.8s-0.7,3.1-0.7,4.8s0.2,3.3,0.7,4.8
                s1.2,2.7,2.1,3.8c0.9,1.1,2,1.9,3.2,2.5c1.3,0.6,2.6,0.9,4.1,0.9s2.9-0.3,4.2-0.9c1.2-0.6,2.3-1.4,3.2-2.5
                c0.9-1.1,1.6-2.3,2.1-3.8C180.3,76.2,180.6,74.6,180.6,72.9z"></path>
              <path class="st0" d="M227.5,76.5c0,5.4-1.5,9.4-4.4,12.2c-2.9,2.7-7,4.1-12.1,4.1c-5.2,0-9.2-1.4-12-4.1
                c-2.8-2.7-4.1-6.8-4.1-12.2V53.6h8.9v22.2c0,2.7,0.6,4.9,1.8,6.4c1.2,1.6,3.1,2.3,5.6,2.3s4.4-0.8,5.6-2.3
                c1.2-1.6,1.8-3.7,1.8-6.4V53.6h8.9V76.5z"></path>
              <path class="st0" d="M265.5,92.9L242.3,72v20.1h-8.9v-39l1.2-0.2l22.9,20.7v-20h8.9v39.1L265.5,92.9z"></path>
              <path class="st0" d="M306.7,72.5c0,2.8-0.5,5.5-1.4,7.9c-0.9,2.4-2.3,4.5-4.2,6.3c-1.9,1.8-4.3,3.2-7.2,4.2
                c-2.9,1-6.4,1.5-10.3,1.5c-1.1,0-2.1,0-3.1,0c-0.9,0-1.8-0.1-2.7-0.1c-0.9-0.1-1.8-0.1-2.8-0.2c-0.9-0.1-2-0.2-3.2-0.3V54
                c2.2-0.2,4.2-0.4,5.9-0.5c1.7-0.1,3.5-0.1,5.5-0.1c4,0,7.5,0.5,10.4,1.5s5.4,2.3,7.3,4s3.4,3.7,4.3,6.1
                C306.2,67.3,306.7,69.8,306.7,72.5z M297.2,72.5c0-3.5-1.1-6.2-3.2-8.2c-2.2-2-5.3-3-9.5-3c-0.8,0-1.4,0-1.9,0.1
                c-0.5,0-1.1,0.1-1.8,0.2v22.6c0.4,0,0.8,0.1,1.1,0.1c0.3,0,0.6,0.1,0.9,0.1s0.6,0,1,0c0.3,0,0.8,0,1.3,0c2.1,0,3.9-0.3,5.4-0.8
                c1.5-0.6,2.8-1.4,3.8-2.4c1-1.1,1.7-2.3,2.2-3.8C296.9,75.9,297.2,74.3,297.2,72.5z"></path>
              <path class="st0" d="M332.2,92.1l-6.6-12.6c-0.3,0-0.5,0.1-0.8,0.1c-0.2,0-0.5,0-0.8,0c-0.7,0-1.2,0-1.7,0s-1,0-1.6-0.1v12.6h-8.9
                V54c1.6-0.2,3.4-0.3,5.2-0.4c1.8-0.1,3.9-0.2,6.1-0.2c3,0,5.6,0.3,7.7,1s3.8,1.6,5.2,2.7c1.3,1.2,2.3,2.5,2.9,4.1s0.9,3.2,0.9,5
                c0,2.3-0.6,4.4-1.7,6.4c-1.2,1.9-2.8,3.5-4.9,4.8l9,14.9h-10V92.1z M330.6,66.4c0-1.6-0.6-2.9-1.7-3.8c-1.2-0.9-2.7-1.3-4.6-1.3
                c-0.7,0-1.3,0-1.8,0.1c-0.5,0-1.1,0.1-1.7,0.2v10.6c0.6,0.1,1.1,0.1,1.5,0.1s0.8,0,1.4,0c2.1,0,3.8-0.5,5.1-1.5
                C330,69.9,330.6,68.4,330.6,66.4z"></path>
              <path class="st0" d="M362.9,76.9v15.2H354V76.8l-13.6-23.2h10.2l7.9,14.8l7.9-14.8h10L362.9,76.9z"></path>
            </g>
          </g>
          <g>
            <rect y="0.2" class="st0" width="21.6" height="92.9"></rect>
          </g>
          <g>
            <rect x="29.1" y="0.2" class="st0" width="64.8" height="21.6"></rect>
          </g>
          <g>
            <polygon class="st0" points="29.1,29.2 29.1,50.8 29.1,50.8 29.1,72.4 50.6,72.4 50.6,50.8 50.6,50.8 50.6,50.8 72.2,50.8 
              72.2,29.2   "></polygon>
          </g>
          </svg>