<svg xmlns="http://www.w3.org/2000/svg" viewBox="0 0 351.54 60.91">
  <defs>
    <style>
      .cls-1{fill:#cbdc41;opacity:0.92;isolation:isolate;}
    </style>
  </defs>
  <path class="cls-1" d="M30.45 0a30.46 30.46 0 1 0 30.46 30.46A30.45 30.45 0 0 0 30.45 0zm0 44.86a14.41 14.41 0 1 1 14.41-14.4 14.41 14.41 0 0 1-14.41 14.4z"></path>
  <path d="M75 17.94h9.13c8.73 0 14.84 2.73 14.84 12.43C98.93 39.75 92.64 43 84.09 43H75zm6.69 20.12h2.58c5 0 7.8-2.59 7.8-7.58s-2.91-7.58-7.8-7.58h-2.62zM108.56 35.54c.36 2.59 2.34 3.6 5.5 3.6a12.13 12.13 0 0 0 5.71-1.44v4.56a18.68 18.68 0 0 1-6.86 1.19c-6.18 0-10.89-3.63-10.89-9.81s4.21-9.77 10-9.77c6.93 0 9.44 4.92 9.44 10.49v1.18zm7.12-3.66c0-2.16-1-3.92-3.6-3.92-2.33 0-3.45 1.76-3.59 3.92zM124.88 37.84a15.92 15.92 0 0 0 6.07 1.3c1.33 0 2.62-.22 2.62-1.51 0-3.16-9.2-.94-9.2-7.69 0-4.31 4.24-6.07 8-6.07a17.68 17.68 0 0 1 6.55 1.13l-.5 4.49a10.51 10.51 0 0 0-5-1.26c-1.4 0-3 .25-3 1.29 0 2.91 9.63.61 9.63 7.73 0 5-4.49 6.25-8.73 6.25a21.13 21.13 0 0 1-6.79-.9zM150.67 21.24h-6.46V16.5h6.46zm-6.46 3.06h6.46V43h-6.46zM176.26 40.82c0 7.69-3.74 10.18-11.26 10.18a22.07 22.07 0 0 1-7.15-1.18l.32-5.11a12.85 12.85 0 0 0 6.32 1.55c3.74 0 5.75-1.76 5.75-5.43v-1h-.07a7.3 7.3 0 0 1-6.29 3.2c-5.14 0-8.33-3.88-8.33-9.42s2.62-9.73 8.44-9.73a7.32 7.32 0 0 1 6.36 3.81h.07V24.3h5.86zm-10.39-2.76c2.3 0 4.14-1.94 4.14-4.82 0-2.08-1.23-4.41-4.14-4.41-2.4 0-3.66 2.11-3.66 4.66 0 2.92 1.72 4.57 3.66 4.57zM181.4 24.3h5.89v3.45h.07c1.3-2.7 3.88-3.88 6.83-3.88 5.1 0 7.15 3.59 7.15 7.47V43h-6.47v-9c0-3.52-1.22-4.7-3-4.7-2.66 0-4 1.83-4 5.85V43h-6.47zM238.1 42.44a27.71 27.71 0 0 1-7.44 1c-6.68 0-14.41-3.38-14.41-12.86 0-8.74 6.11-13.08 14.37-13.08a26.05 26.05 0 0 1 7.44 1.29l-.54 5.43a13.09 13.09 0 0 0-6.52-1.75c-4.74 0-7.83 3.44-7.83 8.12 0 4.92 3.49 7.9 8.37 7.9a17.81 17.81 0 0 0 6.25-1.29zM247.48 35.54c.36 2.59 2.33 3.6 5.49 3.6a12.17 12.17 0 0 0 5.72-1.44v4.56a18.73 18.73 0 0 1-6.87 1.19c-6.17 0-10.88-3.63-10.88-9.81s4.2-9.77 10-9.77c6.94 0 9.45 4.92 9.45 10.49v1.18zm7.11-3.66c0-2.16-1-3.92-3.59-3.92-2.34 0-3.45 1.76-3.6 3.92zM264.76 24.3h5.9v3.45h.07c1.29-2.7 3.88-3.88 6.82-3.88 5.1 0 7.15 3.59 7.15 7.47V43h-6.47v-9c0-3.52-1.22-4.7-3-4.7-2.65 0-4 1.83-4 5.85V43h-6.47zM287.33 24.3h3.81v-4.21l6.36-2v6.21h4.5v4.53h-4.5v6.89c0 2.27.54 3.42 2.58 3.42a13.4 13.4 0 0 0 2-.25l.22 4.2a31.89 31.89 0 0 1-4.06.36c-5.79 0-7.19-2.55-7.19-7v-7.62h-3.7zM319.27 29.47a7.65 7.65 0 0 0-2.19-.21c-3 0-4.71 2.19-4.71 5.85V43h-6.47V24.3h5.9v3.45h.07c1.11-2.37 2.73-3.88 5.53-3.88a13.34 13.34 0 0 1 2.19.21zM334.36 43c0-1-.14-2-.14-3h-.07a6.44 6.44 0 0 1-5.93 3.38c-3.7 0-7-1.83-7-5.89 0-5.72 6.22-6.4 9.67-6.4a19.26 19.26 0 0 1 3 .25c0-2.55-1.94-3.23-4.27-3.23a12.1 12.1 0 0 0-6 1.4l-.11-4.38a19.21 19.21 0 0 1 7.49-1.26c4.78 0 8.91 2 8.91 7.76v7a22.8 22.8 0 0 0 .36 4.42zm-4.45-3.88a4.21 4.21 0 0 0 4-4.42c-.82 0-1.76-.11-2.73-.11-2.19 0-3.91.68-3.91 2.48-.02 1.31 1.13 2.07 2.64 2.07zM345.07 16.07h6.47V43h-6.47z"></path>
</svg>